<svg width="96" height="96" viewBox="0 0 96 96" fill="none" xmlns="http://www.w3.org/2000/svg">
<g id="Engineering" clip-path="url(#clip0_195_4076)">
<g id="Group">
<g id="Group_2">
<path id="Vector" d="M36 60C25.32 60 4 65.36 4 76V84H68V76C68 65.36 46.68 60 36 60Z" fill="white"/>
<path id="Vector_2" d="M88.3994 27.36C88.4394 26.92 88.4794 26.48 88.4794 26C88.4794 25.52 88.4394 25.08 88.3594 24.64L91.3194 22.32C91.5994 22.12 91.6394 21.72 91.4794 21.44L88.6794 16.6C88.5194 16.28 88.1194 16.2 87.8394 16.28L84.3994 17.68C83.6794 17.12 82.8794 16.68 82.0394 16.32L81.5194 12.6C81.4394 12.24 81.1594 12 80.7994 12H75.1994C74.8394 12 74.5594 12.24 74.5194 12.6L73.9994 16.32C73.1594 16.68 72.3594 17.16 71.6394 17.68L68.1594 16.28C67.8394 16.16 67.4794 16.28 67.3194 16.6L64.5194 21.44C64.3594 21.76 64.3994 22.12 64.6794 22.32L67.6394 24.64C67.5594 25.08 67.5194 25.56 67.5194 26C67.5194 26.44 67.5594 26.92 67.6394 27.36L64.6794 29.68C64.3994 29.88 64.3594 30.28 64.5194 30.56L67.3194 35.4C67.4794 35.72 67.8794 35.8 68.1594 35.72L71.6394 34.32C72.3594 34.88 73.1594 35.32 73.9994 35.68L74.5194 39.4C74.5594 39.76 74.8394 40 75.1994 40H80.7994C81.1594 40 81.4394 39.76 81.4794 39.4L81.9994 35.68C82.8394 35.32 83.6394 34.84 84.3594 34.32L87.8394 35.72C88.1594 35.84 88.5194 35.72 88.6794 35.4L91.4794 30.56C91.6394 30.24 91.5994 29.88 91.3194 29.68L88.3994 27.36ZM77.9994 31C75.2394 31 72.9994 28.76 72.9994 26C72.9994 23.24 75.2394 21 77.9994 21C80.7594 21 82.9994 23.24 82.9994 26C82.9994 28.76 80.7594 31 77.9994 31Z" fill="white"/>
<path id="Vector_3" d="M79.6795 46.72L77.6795 43.24C77.5595 43 77.2795 42.92 77.0795 43L74.5995 44C74.0795 43.6 73.5195 43.28 72.9195 43.04L72.5595 40.4C72.4795 40.16 72.2395 40 71.9995 40H67.9995C67.7595 40 67.5595 40.16 67.5195 40.44L67.1595 43.08C66.5595 43.32 65.9995 43.68 65.4795 44.04L62.9995 43.04C62.7595 42.96 62.5195 43.04 62.3995 43.28L60.3995 46.76C60.2795 47 60.3195 47.24 60.5195 47.4L62.6395 49.04C62.5995 49.36 62.5595 49.68 62.5595 50C62.5595 50.32 62.5995 50.68 62.6395 50.96L60.5195 52.6C60.3195 52.76 60.2795 53.04 60.3995 53.24L62.3995 56.72C62.5195 56.96 62.7995 57.04 62.9995 56.96L65.4795 55.96C65.9995 56.36 66.5595 56.68 67.1595 56.92L67.5195 59.56C67.5595 59.84 67.7595 60 67.9995 60H71.9995C72.2395 60 72.4795 59.84 72.4795 59.56L72.8395 56.92C73.4395 56.68 73.9995 56.32 74.5195 55.96L76.9995 56.96C77.2395 57.04 77.4795 56.96 77.5995 56.72L79.5995 53.24C79.7195 53 79.6795 52.76 79.4795 52.6L77.3995 50.96C77.4395 50.64 77.4795 50.32 77.4795 50C77.4795 49.68 77.4395 49.32 77.3995 49.04L79.5195 47.4C79.7195 47.24 79.7595 46.96 79.6795 46.72ZM69.9995 53.32C68.1595 53.32 66.6795 51.8 66.6795 50C66.6795 48.16 68.1995 46.68 69.9995 46.68C71.7995 46.68 73.3195 48.2 73.3195 50C73.3195 51.84 71.8395 53.32 69.9995 53.32Z" fill="white"/>
<path id="Vector_4" d="M18.96 36H53.08C54.16 36 55.04 35.12 55.04 34.04V33.96C55.04 32.88 54.16 32 53.08 32H52C52 26.08 48.76 21 44 18.2V22C44 23.12 43.12 24 42 24C40.88 24 40 23.12 40 22V16.56C38.72 16.24 37.4 16 36 16C34.6 16 33.28 16.24 32 16.56V22C32 23.12 31.12 24 30 24C28.88 24 28 23.12 28 22V18.2C23.24 21 20 26.08 20 32H18.96C17.88 32 17 32.88 17 33.96V34.08C17 35.12 17.88 36 18.96 36Z" fill="white"/>
<path id="Vector_5" d="M36.0005 52C43.4405 52 49.6405 46.88 51.4405 40H20.5605C22.3605 46.88 28.5605 52 36.0005 52Z" fill="white"/>
</g>
</g>
</g>
<defs>
<clipPath id="clip0_195_4076">
<rect width="96" height="96" fill="white"/>
</clipPath>
</defs>
</svg>
